<?xml version="1.0" encoding="utf-8"?>
<!-- Generator: Adobe Illustrator 16.2.1, SVG Export Plug-In . SVG Version: 6.00 Build 0)  -->
<!DOCTYPE svg PUBLIC "-//W3C//DTD SVG 1.1//EN" "http://www.w3.org/Graphics/SVG/1.1/DTD/svg11.dtd">
<svg version="1.1" id="Layer_1" xmlns="http://www.w3.org/2000/svg" xmlns:xlink="http://www.w3.org/1999/xlink" x="0px" y="0px"
	 width="22px" height="41px" viewBox="0 0 22 41" enable-background="new 0 0 22 41" xml:space="preserve">
<path fill-rule="evenodd" clip-rule="evenodd" fill="#FFFFFF" d="M18.968,41.008H3.032c-1.672,0-3.029-1.355-3.029-3.027V3.02
	c0-1.672,1.357-3.027,3.029-3.027h15.936c1.673,0,3.029,1.355,3.029,3.027v34.96C21.997,39.652,20.641,41.008,18.968,41.008z
	 M11.003,38.992c1.107,0,2.005-0.896,2.005-2.004c0-1.105-0.897-2.002-2.005-2.002c-1.106,0-2.004,0.896-2.004,2.002
	C8.999,38.096,9.896,38.992,11.003,38.992z M19.99,7.988H2.01v24.981h17.98V7.988z"/>
</svg>
